<svg xmlns:dc="http://purl.org/dc/elements/1.1/" xmlns:cc="http://creativecommons.org/ns#" xmlns:rdf="http://www.w3.org/1999/02/22-rdf-syntax-ns#" xmlns:svg="http://www.w3.org/2000/svg" xmlns="http://www.w3.org/2000/svg" xmlns:xlink="http://www.w3.org/1999/xlink" id="svg33831" viewBox="0 0 1024 768" height="768" width="1024" version="1.1">
  <metadata id="metadata33837">
    <rdf:rdf>
      <cc:work rdf:about="">
        <dc:format>image/svg+xml</dc:format>
        <dc:type rdf:resource="http://purl.org/dc/dcmitype/StillImage"></dc:type>
      </cc:work>
    </rdf:rdf>
  </metadata>
  <defs id="defs33835"></defs>
  <linearGradient spreadMethod="pad" y2="30%" x2="-10%" y1="120%" x1="30%" id="3d_gradient2-logo-2cc24ccc-d851-478c-bee7-fdeb3d420f74">
    <stop id="stop33812" stop-opacity="1" stop-color="#ffffff" offset="0%"></stop>
    <stop id="stop33814" stop-opacity="1" stop-color="#000000" offset="100%"></stop>
  </linearGradient>
  <linearGradient gradientTransform="rotate(-30)" spreadMethod="pad" y2="30%" x2="-10%" y1="120%" x1="30%" id="3d_gradient3-logo-2cc24ccc-d851-478c-bee7-fdeb3d420f74">
    <stop id="stop33817" stop-opacity="1" stop-color="#ffffff" offset="0%"></stop>
    <stop id="stop33819" stop-opacity="1" stop-color="#cccccc" offset="50%"></stop>
    <stop id="stop33821" stop-opacity="1" stop-color="#000000" offset="100%"></stop>
  </linearGradient>
  <g id="logo-group">
    <image xlink:href="" id="container" x="272" y="144" width="480" height="480" style="display: none;" transform="translate(0 0)"></image>
    <g id="logo-center" transform="translate(157.88324999999992 0)">
      <image xlink:href="" id="icon_container" style="display: none;" x="0" y="0"></image>
      <g id="slogan" style="font-style:normal;font-weight:700;font-size:32px;line-height:1;font-family:'Brandmark1 Bold Color';font-variant-ligatures:none;text-align:center;text-anchor:middle" transform="translate(0 0)"></g>
      <g id="title" style="font-style:normal;font-weight:700;font-size:72px;line-height:1;font-family:'Brandmark1 Bold Color';font-variant-ligatures:normal;text-align:center;text-anchor:middle" transform="translate(0 0)">
        <g id="path33840" aria-label="N" transform="translate(0 331.48) translate(50 -3.6400000000000006) scale(2) translate(-363.30819 53.64)"> <path class="c1" d="M88.08252,93.00806v35.07422H76.77783V71.91772h10.01563l25.12305,35.39795V71.91772h11.30566v56.16455 h-10.23242L88.08252,93.00806z" transform="translate(286.53036 -125.55772)" stroke-width="0px" stroke-linejoin="miter" stroke-miterlimit="2" fill="#000000" stroke="#000000"></path> </g>
        <g id="path33842" aria-label="E" transform="translate(0 331.48) translate(158.2812399999999 -3.6400000000000006) scale(2) translate(-417.44881 53.64)"> <path class="c1" d="M81.8186,128.08252h36.36279v-10.51367H81.8186V128.08252z M81.8186,105.47217h36.36279v-10.729H81.8186 V105.47217z M81.8186,71.91748v10.729h36.36279v-10.729H81.8186z" transform="translate(335.63021 -125.55748)" stroke-width="0px" stroke-linejoin="miter" stroke-miterlimit="2" fill="#000000" stroke="#000000"></path> </g>
        <g id="path33844" aria-label="X" transform="translate(0 331.48) translate(231.39723999999987 -3.6400000000000006) scale(2) translate(-454.00681 53.64)"> <polygon class="c1" points="112.69824,71.91748 100.02539,90.66797 87.28711,71.91748 73.95898,71.91748 92.78125,99.99268 73.70703,128.08252 87.06445,128.08252 99.9248,109.32471 99.9408,109.34808 125.66718,71.91748 " transform="translate(380.29978 -125.55748)" stroke-width="0px" stroke-linejoin="miter" stroke-miterlimit="2" fill="#000000" stroke="#000000"></polygon> <polygon class="c3" points="116.85968,114.24286 103.29663,114.24286 112.78516,128.08252 126.29297,128.08252 " transform="translate(380.29978 -125.55748)" stroke-width="0px" stroke-linejoin="miter" stroke-miterlimit="2" fill="#272C2F" stroke="#272C2F"></polygon> </g>
        <g id="path33846" aria-label="L" transform="translate(0 331.48) translate(339.125 -3.6400000000000006) scale(2) translate(-507.87069 53.64)"> <path class="c1" d="M81.71045,75.51782l11.30469-3.6001v45.43604h25.27441v10.72852h-36.5791V75.51782z" transform="translate(426.16024 -125.55772)" stroke-width="0px" stroke-linejoin="miter" stroke-miterlimit="2" fill="#000000" stroke="#000000"></path> </g>
        <g id="path33848" aria-label="I" transform="translate(0 331.48) translate(420.00124 -3.6400000000000006) scale(2) translate(-548.30881 53.64)"> <path class="c1" d="M94.34741,75.51758l11.30518-3.6001v56.16504H94.34741V75.51758z" transform="translate(453.9614 -125.55748)" stroke-width="0px" stroke-linejoin="miter" stroke-miterlimit="2" fill="#000000" stroke="#000000"></path> </g>
        <g id="path33850" aria-label="N" transform="translate(0 331.48) translate(458.65624 -3.6400000000000006) scale(2) translate(-567.63631 53.64)"> <path class="c1" d="M88.08252,93.00806v35.07422H76.77783V71.91772h10.01563l25.12305,35.39795V71.91772h11.30566v56.16455 h-10.23242L88.08252,93.00806z" transform="translate(490.85848 -125.55772)" stroke-width="0px" stroke-linejoin="miter" stroke-miterlimit="2" fill="#000000" stroke="#000000"></path> </g>
        <g id="path33852" aria-label="K" transform="translate(0 331.48) translate(566.9375000000001 -3.6400000000000006) scale(2) translate(-621.77694 53.64)"> <polygon class="c1" points="108.10376,71.91748 88.48218,95.62207 88.48218,71.91748 77.17749,71.91748 77.17749,128.08252 88.48218,128.08252 88.48218,112.30518 122.80005,71.91748 " transform="translate(544.59945 -125.55748)" stroke-width="0px" stroke-linejoin="miter" stroke-miterlimit="2" fill="#000000" stroke="#000000"></polygon> <polygon class="c3" points="112.71143,114.24286 98.67279,114.24286 108.73071,128.08252 122.82251,128.08252 " transform="translate(544.59945 -125.55748)" stroke-width="0px" stroke-linejoin="miter" stroke-miterlimit="2" fill="#272C2F" stroke="#272C2F"></polygon> </g>
             </g>
      <image xlink:href="" id="icon" style="display: none;" x="0" y="0"></image>
    </g>
  </g>
</svg>